# xmcd
#
# Track frame offsets: 
#        150
#        10947
#        21705
#        31873
#        42221
#        53656
#        67699
#        79074
#        90243
#        102499
#        112490
#        123149
#        134642
#        149371
#        165655
#        179353
#        190320
#        201705
#        212865
#        225346
#        239324
#        250231
#        261651
#        274898
#
# Disc length: 3830 seconds
#
# Revision: 0
# Processed by: cddbd v1.5.2PL0 Copyright (c) Steve Scherf et al.
# Submitted via: ExactAudioCopy v0.99pb4
#
DISCID=640ef418
DTITLE=Various Artist - 100 Club Anniversary Singles
DYEAR=1968
DGENRE=Soul
TTITLE0=Mary Love - Hey Stoney Face
TTITLE1=Melba Moore - The Magic Touch
TTITLE2=The Platters - Not My Girl
TTITLE3=Peggy Woods - Love Is Gonna Get You
TTITLE4=Wally Cox - This Man Wants You
TTITLE5=Carla Thomas - I'll Never Stop Loving You
TTITLE6=Chuck Jackson - What's With This Loneliness
TTITLE7=Teardrops - Here Comes Loneliness
TTITLE8=Terrell, Phil - Love Has Passed Me By
TTITLE9=Edwards, John - Ain't That Good Enough
TTITLE10=Sharon Scott - (Putting My Heart Under) Lock And Key
TTITLE11=Lorraine Chandler - You Only Live Twice
TTITLE12=San Francisco T.K.O.'s - Make Up Your Mind
TTITLE13=Johnnie Taylor - Pleae Let Me In
TTITLE14=Garland Green - Come Through Me
TTITLE15=Mill Evans - Ain't You Glad
TTITLE16=The M&Ms and The Peanuts - Can't Say No
TTITLE17=Debra Johnson - To Get Love You've Got to Give Love
TTITLE18=The Magicians - Just A Little Faith And Understanding
TTITLE19=The Devonnes - Doin' "The Gittin' Up"
TTITLE20=The Charmaines - I Don't Want To Lose Him
TTITLE21=Milton Bennett - What's One More Lie?
TTITLE22=Hytones, The - Good News
TTITLE23=Jackie Day - Get To Steppin'
EXTD=
EXTT0=
EXTT1=
EXTT2=
EXTT3=
EXTT4=
EXTT5=
EXTT6=
EXTT7=
EXTT8=
EXTT9=
EXTT10=
EXTT11=
EXTT12=
EXTT13=
EXTT14=
EXTT15=
EXTT16=
EXTT17=
EXTT18=
EXTT19=
EXTT20=
EXTT21=
EXTT22=
EXTT23=
PLAYORDER=
